Coordinates
version=1
nRows=30
nColumns=30
inDegrees=yes

Units are S.I. units (second, meters, Newtons, ...)
Angles are in degrees.

endheader
time	floatyaw	floatroll	floatpitch	floatx	floaty	floatz	pro_sup_l	deviation_l	flexion_l	cmc_flexion_l	cmc_abduction_l	mp_flexion_l	ip_flexion_l	2mcp_flexion_l	2mcp_abduction_l	2pm_flexion_l	2md_flexion_l	3mcp_flexion_l	3mcp_abduction_l	3pm_flexion_l	3md_flexion_l	4mcp_flexion_l	4mcp_abduction_l	4pm_flexion_l	4md_flexion_l	5mcp_flexion_l	5mcp_abduction_l	5pm_flexion_l	5md_flexion_l
-0.995000	-160.147433	-5.066637	-73.570646	0.072891	-0.177904	-0.024306	98.851374	1.583771	0.799830	14.259717	4.785599	-25.556350	-40.944962	29.231956	7.808308	42.639371	30.065103	22.580768	4.205241	45.057169	30.330641	10.960857	-4.708968	53.686265	36.771446	-1.112413	-7.790338	62.895191	43.578765
-0.985000	-160.147433	-5.066637	-73.570646	0.072761	-0.177874	-0.024424	98.745189	1.581660	0.814253	14.197825	4.749404	-25.561571	-40.932046	29.214574	7.825121	42.710992	30.108466	22.606586	4.210636	45.049467	30.339715	10.941875	-4.717762	53.548039	36.711153	-1.089605	-7.801341	62.821753	43.551274
-0.975000	-160.147433	-5.066637	-73.570646	0.072628	-0.177825	-0.024538	98.621504	1.553460	0.839839	14.145341	4.711784	-25.573138	-40.925030	29.215178	7.841409	42.781912	30.146107	22.644747	4.217606	45.057627	30.344304	10.939397	-4.725431	53.462335	36.673575	-1.080807	-7.815188	62.786999	43.533517
-0.965000	-160.147433	-5.066637	-73.570646	0.072491	-0.177764	-0.024648	98.480959	1.499412	0.882230	14.104872	4.664431	-25.585699	-40.923673	29.223375	7.854925	42.850255	30.185521	22.690830	4.222991	45.093811	30.350131	10.965798	-4.730363	53.431898	36.653903	-1.079111	-7.830951	62.786201	43.526886
-0.955000	-160.147433	-5.066637	-73.570646	0.072350	-0.177698	-0.024754	98.331002	1.426584	0.941250	14.080304	4.605074	-25.590418	-40.923475	29.226801	7.865530	42.916051	30.235268	22.740962	4.224059	45.166227	30.364946	11.032662	-4.732246	53.443130	36.644930	-1.069095	-7.847650	62.808733	43.531974
-0.945000	-160.147433	-5.066637	-73.570646	0.072205	-0.177628	-0.024862	98.186875	1.347207	1.009950	14.075638	4.539364	-25.579559	-40.918199	29.220912	7.874928	42.978894	30.299902	22.794527	4.220407	45.274312	30.394436	11.146000	-4.732051	53.478571	36.643051	-1.034321	-7.864825	62.844159	43.549025
-0.935000	-160.147433	-5.066637	-73.570646	0.072056	-0.177554	-0.024977	98.067958	1.275107	1.077293	14.091408	4.478019	-25.551574	-40.904025	29.213011	7.885355	43.036940	30.378134	22.853747	4.214575	45.407324	30.439454	11.300741	-4.731496	53.526618	36.650880	-0.966134	-7.882942	62.884945	43.578033
-0.925000	-160.147433	-5.066637	-73.570646	0.071904	-0.177474	-0.025104	97.990269	1.221476	1.133302	14.121485	4.430604	-25.513567	-40.883068	29.217886	7.898256	43.087866	30.464937	22.920845	4.210842	45.547679	30.496133	11.479230	-4.732271	53.583975	36.675276	-0.868445	-7.903205	62.926367	43.618850
-0.915000	-160.147433	-5.066637	-73.570646	0.071747	-0.177381	-0.025251	97.958755	1.191603	1.173975	14.153629	4.399435	-25.479021	-40.863790	29.248111	7.913755	43.130885	30.555392	22.995404	4.212919	45.677220	30.558189	11.656489	-4.735367	53.652112	36.722417	-0.755252	-7.926830	62.965581	43.671128
-0.905000	-160.147433	-5.066637	-73.570646	0.071581	-0.177269	-0.025420	97.963788	1.183967	1.203239	14.174371	4.377939	-25.461511	-40.857210	29.305577	7.930868	43.168140	30.647293	23.074245	4.221980	45.783200	30.619620	11.810041	-4.740760	53.732203	36.793221	-0.642485	-7.954144	63.001145	43.733743
-0.895000	-160.147433	-5.066637	-73.570646	0.071397	-0.177134	-0.025620	97.984064	1.192210	1.230730	14.175057	4.355355	-25.468047	-40.870621	29.379693	7.947896	43.204398	30.741126	23.153835	4.236161	45.861882	30.676580	11.928828	-4.747474	53.822381	36.881904	-0.539536	-7.984003	63.033095	43.803974
-0.885000	-160.147433	-5.066637	-73.570646	0.071184	-0.176972	-0.025857	97.994502	1.209076	1.266504	14.154883	4.324643	-25.496192	-40.902924	29.452975	7.962690	43.245090	30.838055	23.233079	4.251615	45.919330	30.728326	12.016742	-4.753848	53.918058	36.978215	-0.445607	-8.013859	63.063010	43.877192
-0.875000	-160.147433	-5.066637	-73.570646	0.070937	-0.176782	-0.026134	97.975210	1.230300	1.315419	14.119261	4.287540	-25.536571	-40.945144	29.510156	7.972946	43.293547	30.937544	23.314022	4.264381	45.969346	30.777334	12.089777	-4.757899	54.013474	37.071628	-0.352253	-8.040605	63.093421	43.947572
-0.865000	-160.147433	-5.066637	-73.570646	0.070650	-0.176564	-0.026452	97.917237	1.256302	1.374032	14.075206	4.253156	-25.578814	-40.986025	29.545595	7.976712	43.348400	31.035993	23.399862	4.272073	46.028449	30.828293	12.168774	-4.757795	54.102469	37.155151	-0.249697	-8.061843	63.126408	44.009754
-0.855000	-160.147433	-5.066637	-73.570646	0.070324	-0.176316	-0.026811	97.822774	1.290718	1.431489	14.027067	4.231886	-25.617007	-41.018921	29.565620	7.972933	43.402188	31.127201	23.492028	4.274697	46.108892	30.885848	12.271071	-4.752515	54.178431	37.227311	-0.132958	-8.076865	63.162079	44.060939
-0.845000	-160.147433	-5.066637	-73.570646	0.069956	-0.176034	-0.027207	97.700645	1.336658	1.473770	13.975238	4.229840	-25.651480	-41.045442	29.585131	7.961899	43.442668	31.204703	23.588779	4.274399	46.212712	30.952027	12.404392	-4.742646	54.235133	37.292144	-0.004553	-8.086832	63.198167	44.102538
-0.835000	-160.147433	-5.066637	-73.570646	0.069540	-0.175707	-0.027642	97.560448	1.393111	1.489091	13.918296	4.247800	-25.686152	-41.073565	29.619944	7.945781	43.457834	31.265209	23.686387	4.274399	46.330348	31.024988	12.565164	-4.730857	54.269746	37.357760	0.127332	-8.094248	63.231363	44.140467
-0.825000	-160.147433	-5.066637	-73.570646	0.069068	-0.175325	-0.028117	97.408787	1.453915	1.471940	13.856613	4.284790	-25.723273	-41.111313	29.678184	7.929301	43.443442	31.311660	23.781785	4.277573	46.445277	31.100146	12.741489	-4.721468	54.286992	37.434218	0.253842	-8.102260	63.259757	44.183612
-0.815000	-160.147433	-5.066637	-73.570646	0.068529	-0.174879	-0.028639	97.248828	1.510075	1.424121	13.794298	4.343012	-25.758958	-41.159541	29.755167	7.920004	43.409054	31.354026	23.874497	4.285255	46.542586	31.173070	12.919010	-4.718955	54.301433	37.531300	0.370505	-8.114236	63.285024	44.240960
-0.805000	-160.147433	-5.066637	-73.570646	0.067918	-0.174369	-0.029213	97.081903	1.554031	1.352754	13.737470	4.429866	-25.782803	-41.208255	29.834981	7.927262	43.377939	31.406565	23.966337	4.296812	46.616933	31.242281	13.086876	-4.726029	54.334987	37.656638	0.479079	-8.133679	63.313426	44.318615
-0.795000	-160.147433	-5.066637	-73.570646	0.067236	-0.173799	-0.029840	96.908892	1.583377	1.266752	13.689788	4.554384	-25.782745	-41.239551	29.898083	7.959611	43.379270	31.482155	24.059045	4.310285	46.675604	31.310126	13.241038	-4.742371	54.409178	37.814429	0.584724	-8.164283	63.355401	44.418109
-0.785000	-160.147433	-5.066637	-73.570646	0.066491	-0.173189	-0.030521	96.729937	1.602153	1.173867	13.648736	4.719074	-25.752870	-41.236799	29.930320	8.021200	43.436097	31.586650	24.151551	4.323824	46.734851	31.381204	13.383268	-4.764709	54.534655	38.004708	0.690000	-8.209832	63.423723	44.536696
-0.775000	-160.147433	-5.066637	-73.570646	0.065694	-0.172559	-0.031254	96.542761	1.619427	1.079627	13.606142	4.912379	-25.699232	-41.195194	29.928240	8.109002	43.555528	31.716737	24.238905	4.337074	46.811352	31.459518	13.516709	-4.788109	54.702503	38.222827	0.789866	-8.273558	63.529743	44.669188
-0.765000	-160.147433	-5.066637	-73.570646	0.064860	-0.171931	-0.032033	96.341344	1.646163	0.987905	13.553113	5.108403	-25.639383	-41.126764	29.898818	8.212423	43.726093	31.862655	24.313924	4.351573	46.913543	31.546693	13.641160	-4.807796	54.882476	38.458967	0.872216	-8.356687	63.677760	44.810053
-0.755000	-160.147433	-5.066637	-73.570646	0.063997	-0.171320	-0.032855	96.116671	1.691689	0.901887	13.485596	5.276460	-25.595588	-41.056182	29.855370	8.315986	43.922771	32.013998	24.370780	4.369807	47.038036	31.642963	13.751671	-4.820729	55.032056	38.698246	0.925130	-8.456548	63.859826	44.954784
-0.745000	-160.147433	-5.066637	-73.570646	0.063107	-0.170731	-0.033716	95.859691	1.760711	0.824245	13.406152	5.395659	-25.586267	-41.010441	29.812366	8.404281	44.116789	32.165317	24.408415	4.393532	47.173499	31.750355	13.842040	-4.826402	55.115855	38.922705	0.946951	-8.565522	64.055486	45.100504
-0.735000	-160.147433	-5.066637	-73.570646	0.062187	-0.170159	-0.034614	95.565079	1.851329	0.756055	13.321109	5.465340	-25.620692	-41.009473	29.780844	8.467136	44.286571	32.319233	24.431861	4.422422	47.309839	31.875456	13.911617	-4.826664	55.126891	39.116014	0.952502	-8.672280	64.239153	45.246343
-0.725000	-160.147433	-5.066637	-73.570646	0.061232	-0.169598	-0.035547	95.234146	1.954381	0.694916	13.236233	5.504998	-25.698287	-41.062313	29.765263	8.502534	44.427008	32.486476	24.450755	4.453775	47.447318	32.029215	13.970986	-4.824743	55.095374	39.269717	0.970811	-8.765298	64.392047	45.393576
-0.715000	-160.147433	-5.066637	-73.570646	0.060243	-0.169042	-0.036513	94.875934	2.054630	0.633655	13.154262	5.544774	-25.810355	-41.167729	29.762484	8.515888	44.554266	32.683203	24.475820	4.483279	47.600397	32.223312	14.041663	-4.823897	55.075719	39.387701	1.034961	-8.836892	64.511196	45.544955
-0.705000	-160.147433	-5.066637	-73.570646	0.059226	-0.168487	-0.037511	94.505931	2.134190	0.561242	13.075019	5.613094	-25.942099	-41.315833	29.763218	8.516466	44.703373	32.926225	24.515111	4.506411	47.793885	32.464908	14.148441	-4.826190	55.118606	39.485708	1.169478	-8.885623	64.610105	45.703202
